<svg width="27" height="16" xmlns="http://www.w3.org/2000/svg">

 <g>
  <title>background</title>
  <rect fill="none" id="canvas_background" height="402" width="582" y="-1" x="-1"/>
 </g>
 <g>
  <title>Layer 1</title>
  <path stroke="null" id="svg_1" fill="#000000" d="m1.098011,7.36396c-0.550198,0 -0.99623,0.44772 -0.99623,1c0,0.55228 0.446032,1 0.99623,1l0,-2zm25.610092,1.70711c0.389028,-0.39053 0.389028,-1.02369 0,-1.41421l-6.34001,-6.36397c-0.389028,-0.39052 -1.019841,-0.39052 -1.408869,0c-0.389028,0.39053 -0.389028,1.02369 0,1.41422l5.635575,5.65685l-5.635575,5.6569c-0.389028,0.3905 -0.389028,1.0236 0,1.4142c0.389028,0.3905 1.019841,0.3905 1.408869,0l6.34001,-6.36399zm-25.610092,0.29289l24.905658,0l0,-2l-24.905658,0l0,2z"/>
  <path d="m4.466922,7.870389c0,-0.050891 0.064851,-0.056745 0.101781,0.05089c0.084214,0.245447 0.081783,0.568739 0.203562,0.81425c0.131861,0.265834 0.299163,0.432237 0.458015,0.458015c0.100467,0.016304 0.160272,0.026754 0.203562,0c0.193599,-0.119651 0.107677,-0.405285 0.152672,-0.559797c0.058665,-0.201459 0.101781,-0.407125 0.101781,-0.508905c0,-0.050891 0.031416,-0.105655 0.050891,-0.152672c0.027542,-0.066492 0.101781,-0.101781 0.203562,-0.101781c0.152672,0 0.407125,-0.050891 0.661578,-0.050891l0.305344,0l0.203562,0l0.05089,0.050891" id="svg_2" fill-opacity="null" stroke-opacity="null" stroke-width="null" stroke="null" fill="none"/>
  <path id="svg_3" d="m11.947839,7.768608c13.689568,0.458015 10.330789,3.613232 10.291347,3.579993c0.039442,0.033239 -4.998726,3.748252 -5.038168,3.715013" opacity="0.5" fill-opacity="null" stroke-opacity="null" stroke-width="null" stroke="null" fill="none"/>
 </g>
</svg>